<svg width="193" height="193" viewBox="0 0 193 193" fill="none" xmlns="http://www.w3.org/2000/svg">
<rect width="193" height="193" rx="95" fill="black"/>
<g clip-path="url(#clip0_92_58)">
<path d="M53.704 154.536C46.1093 154.536 40.52 153.171 36.936 150.44C33.4373 147.709 31.688 143.699 31.688 138.408C31.688 135.592 31.944 132.947 32.456 130.472C33.0533 127.997 33.9067 125.139 35.016 121.896C35.9547 119.08 36.68 116.648 37.192 114.6C37.704 112.552 37.96 110.461 37.96 108.328C37.96 106.109 37.4907 104.275 36.552 102.824C35.6987 101.373 33.992 100.264 31.432 99.496C28.872 98.728 25.16 98.344 20.296 98.344V88.872C25.2453 88.872 28.9573 88.5733 31.432 87.976C33.992 87.3787 35.6987 86.4827 36.552 85.288C37.4907 84.008 37.96 82.3013 37.96 80.168C37.96 78.0347 37.704 75.9867 37.192 74.024C36.7653 71.976 36.04 69.4587 35.016 66.472C33.9067 63.2293 33.0533 60.4133 32.456 58.024C31.944 55.5493 31.688 52.904 31.688 50.088C31.688 44.712 33.4373 40.6587 36.936 37.928C40.52 35.1973 46.1093 33.832 53.704 33.832C56.008 33.832 58.2267 34.0453 60.36 34.472C62.5787 34.8133 65.1813 35.368 68.168 36.136V42.024C67.5707 41.9387 66.2053 41.8533 64.072 41.768C62.024 41.6827 60.4027 41.64 59.208 41.64C49.48 41.64 44.616 45.1813 44.616 52.264C44.616 55.08 45.3413 59.4747 46.792 65.448C48.328 72.104 49.096 77.096 49.096 80.424C49.096 84.3493 47.432 87.4213 44.104 89.64C40.776 91.7733 36.552 93.224 31.432 93.992C36.4667 94.6747 40.648 96.2107 43.976 98.6C47.3893 100.989 49.096 104.147 49.096 108.072C49.096 110.12 48.8827 112.296 48.456 114.6C48.1147 116.819 47.56 119.549 46.792 122.792C45.3413 128.765 44.616 133.203 44.616 136.104C44.616 143.187 49.48 146.728 59.208 146.728C60.488 146.728 61.9813 146.685 63.688 146.6C65.48 146.515 66.9733 146.429 68.168 146.344V152.232C65.1813 153 62.5787 153.555 60.36 153.896C58.2267 154.323 56.008 154.536 53.704 154.536Z" fill="white"/>
<path d="M141.296 157.536C148.891 157.536 154.48 156.171 158.064 153.44C161.563 150.709 163.312 146.699 163.312 141.408C163.312 138.592 163.056 135.947 162.544 133.472C161.947 130.997 161.093 128.139 159.984 124.896C159.045 122.08 158.32 119.648 157.808 117.6C157.296 115.552 157.04 113.461 157.04 111.328C157.04 109.109 157.509 107.275 158.448 105.824C159.301 104.373 161.008 103.264 163.568 102.496C166.128 101.728 169.84 101.344 174.704 101.344V91.872C169.755 91.872 166.043 91.5733 163.568 90.976C161.008 90.3787 159.301 89.4827 158.448 88.288C157.509 87.008 157.04 85.3013 157.04 83.168C157.04 81.0347 157.296 78.9867 157.808 77.024C158.235 74.976 158.96 72.4587 159.984 69.472C161.093 66.2293 161.947 63.4133 162.544 61.024C163.056 58.5493 163.312 55.904 163.312 53.088C163.312 47.712 161.563 43.6587 158.064 40.928C154.48 38.1973 148.891 36.832 141.296 36.832C138.992 36.832 136.773 37.0453 134.64 37.472C132.421 37.8133 129.819 38.368 126.832 39.136V45.024C127.429 44.9387 128.795 44.8533 130.928 44.768C132.976 44.6827 134.597 44.64 135.792 44.64C145.52 44.64 150.384 48.1813 150.384 55.264C150.384 58.08 149.659 62.4747 148.208 68.448C146.672 75.104 145.904 80.096 145.904 83.424C145.904 87.3493 147.568 90.4213 150.896 92.64C154.224 94.7733 158.448 96.224 163.568 96.992C158.533 97.6747 154.352 99.2107 151.024 101.6C147.611 103.989 145.904 107.147 145.904 111.072C145.904 113.12 146.117 115.296 146.544 117.6C146.885 119.819 147.44 122.549 148.208 125.792C149.659 131.765 150.384 136.203 150.384 139.104C150.384 146.187 145.52 149.728 135.792 149.728C134.512 149.728 133.019 149.685 131.312 149.6C129.52 149.515 128.027 149.429 126.832 149.344V155.232C129.819 156 132.421 156.555 134.64 156.896C136.773 157.323 138.992 157.536 141.296 157.536Z" fill="white"/>
<line x1="113.767" y1="109.959" x2="67.798" y2="41.8072" stroke="#0F61A8" stroke-width="2"/>
<path d="M133.328 153.572L106 47.4999L42.0004 191.862" stroke="white" stroke-width="15"/>
</g>
<defs>
<clipPath id="clip0_92_58">
<rect width="156" height="182" fill="white" transform="translate(19 11)"/>
</clipPath>
</defs>
</svg>
