<svg width="193" height="193" viewBox="0 0 193 193" fill="none" xmlns="http://www.w3.org/2000/svg">
<g clip-path="url(#clip0_45_2)">
<rect width="193" height="193" rx="95" fill="black"/>
<g clip-path="url(#clip1_45_2)">
<path d="M23.7273 96.9091V91.2727C28.7879 91.2727 32.3182 90.2121 34.3182 88.0909C36.3485 85.9697 37.3636 82.4242 37.3636 77.4545V62.9091C37.3636 58.7273 37.7576 55.1061 38.5455 52.0454C39.3636 48.9848 40.6818 46.4545 42.5 44.4545C44.3182 42.4545 46.7424 40.9697 49.7727 40C52.803 39.0303 56.5455 38.5454 61 38.5454V47.4545C57.4848 47.4545 54.7121 48 52.6818 49.0909C50.6818 50.1818 49.2576 51.8788 48.4091 54.1818C47.5909 56.4545 47.1818 59.3636 47.1818 62.9091V81.0909C47.1818 83.4545 46.8636 85.6061 46.2273 87.5455C45.6212 89.4848 44.4848 91.1515 42.8182 92.5455C41.1515 93.9394 38.7727 95.0152 35.6818 95.7727C32.6212 96.5303 28.6364 96.9091 23.7273 96.9091ZM61 154.909C56.5455 154.909 52.803 154.424 49.7727 153.455C46.7424 152.485 44.3182 151 42.5 149C40.6818 147 39.3636 144.47 38.5455 141.409C37.7576 138.348 37.3636 134.727 37.3636 130.545V116C37.3636 111.03 36.3485 107.485 34.3182 105.364C32.3182 103.242 28.7879 102.182 23.7273 102.182V96.5455C28.6364 96.5455 32.6212 96.9242 35.6818 97.6818C38.7727 98.4394 41.1515 99.5151 42.8182 100.909C44.4848 102.303 45.6212 103.97 46.2273 105.909C46.8636 107.848 47.1818 110 47.1818 112.364V130.545C47.1818 134.091 47.5909 137 48.4091 139.273C49.2576 141.545 50.6818 143.227 52.6818 144.318C54.7121 145.439 57.4848 146 61 146V154.909ZM23.7273 102.182V91.2727H34.4545V102.182H23.7273Z" fill="white"/>
<path d="M168.273 96.9091V91.2727C163.212 91.2727 159.682 90.2121 157.682 88.0909C155.652 85.9697 154.636 82.4242 154.636 77.4545V62.9091C154.636 58.7273 154.242 55.1061 153.455 52.0454C152.636 48.9848 151.318 46.4545 149.5 44.4545C147.682 42.4545 145.258 40.9697 142.227 40C139.197 39.0303 135.455 38.5454 131 38.5454V47.4545C134.515 47.4545 137.288 48 139.318 49.0909C141.318 50.1818 142.742 51.8788 143.591 54.1818C144.409 56.4545 144.818 59.3636 144.818 62.9091V81.0909C144.818 83.4545 145.136 85.6061 145.773 87.5455C146.379 89.4848 147.515 91.1515 149.182 92.5455C150.848 93.9394 153.227 95.0152 156.318 95.7727C159.379 96.5303 163.364 96.9091 168.273 96.9091ZM131 154.909C135.455 154.909 139.197 154.424 142.227 153.455C145.258 152.485 147.682 151 149.5 149C151.318 147 152.636 144.47 153.455 141.409C154.242 138.348 154.636 134.727 154.636 130.545V116C154.636 111.03 155.652 107.485 157.682 105.364C159.682 103.242 163.212 102.182 168.273 102.182V96.5455C163.364 96.5455 159.379 96.9242 156.318 97.6818C153.227 98.4394 150.848 99.5151 149.182 100.909C147.515 102.303 146.379 103.97 145.773 105.909C145.136 107.848 144.818 110 144.818 112.364V130.545C144.818 134.091 144.409 137 143.591 139.273C142.742 141.545 141.318 143.227 139.318 144.318C137.288 145.439 134.515 146 131 146V154.909ZM168.273 102.182V91.2727H157.545V102.182H168.273Z" fill="white"/>
<line x1="113.305" y1="99.6831" x2="60.2869" y2="45.701" stroke="#0F61A8" stroke-width="2"/>
<path d="M133.328 154.572L106 48.4999L42.0004 192.862" stroke="white" stroke-width="15"/>
</g>
</g>
<defs>
<clipPath id="clip0_45_2">
<rect width="193" height="193" rx="95" fill="white"/>
</clipPath>
<clipPath id="clip1_45_2">
<rect width="154" height="182" fill="white" transform="translate(19 12)"/>
</clipPath>
</defs>
</svg>
